
<svg width="91px" height="27px" viewBox="0 0 91 27" version="1.1" xmlns="http://www.w3.org/2000/svg" xmlns:xlink="http://www.w3.org/1999/xlink">
    <g id="Page-1" stroke="none" stroke-width="1" fill="none" fill-rule="evenodd">
        <g id="Artboard" fill-rule="nonzero">
            <g id="bma-logo">
                <path d="M78.2155283,10.9206066 L80.7716253,17.9434395 L83.3277223,10.9206066 L78.2155283,10.9206066 Z M82.7872669,24.3877276 L80.4607347,24.3866982 C79.4385018,24.3866982 78.5603903,23.7535932 78.2000867,22.8590107 L70.9723955,3.00010294 L75.3330991,3.00010294 L76.8968169,7.29698133 L84.6464337,7.29698133 L86.211181,3.00010294 L90.5718846,3.00010294 L82.7872669,24.3877276 Z" id="path202" fill="#FFFFFF" transform="translate(80.772140, 13.693915) scale(1, -1) translate(-80.772140, -13.693915) "></path>
                <path d="M61.5866913,6.65553789 C60.8887316,5.02078876 60.4707794,4.03973339 59.1572152,4.03973339 C57.8879169,4.03973339 57.4298166,5.02696539 56.6721495,6.65965564 L52.7561635,15.0887022 L52.7561635,3 L48.4911978,3 L48.4911978,24.3876247 L52.916756,24.3876247 L59.2333937,10.1504833 L64.941633,24.3876247 L69.3980744,24.3876247 L69.3980744,3 L65.1331086,3 L65.1331086,14.9600223 L61.5866913,6.65553789 Z" id="path198" fill="#FFFFFF" transform="translate(58.944636, 13.693812) scale(1, -1) translate(-58.944636, -13.693812) "></path>
                <path d="M34.990517,6.1907472 L38.0685397,6.1907472 C38.8169418,6.1907472 39.4047515,6.22265981 39.8329981,6.28751447 C40.2591858,6.35133968 40.6122834,6.45840134 40.890232,6.60766999 C41.3606856,6.86400031 41.7024593,7.17900864 41.9165826,7.55372444 C42.1296765,7.92741079 42.2377676,8.31756817 42.2377676,8.72419658 C42.2377676,9.19362076 42.1029111,9.65378 41.8362864,10.1026154 C41.5686323,10.5514508 41.1681805,10.9148428 40.6339016,11.1927913 C40.2921279,11.3636782 39.9019705,11.4861814 39.4634295,11.5613305 C39.0248885,11.6364795 38.5389933,11.6735393 38.0047144,11.6735393 L34.990517,11.6735393 L34.990517,6.1907472 Z M34.990517,15.1684847 L37.1070436,15.1684847 C37.598086,15.1684847 38.0685397,15.1901029 38.5173751,15.2333394 C38.9662105,15.2755464 39.2873954,15.3506954 39.4799005,15.4577571 C40.0357976,15.7140874 40.4362494,16.0393901 40.6822853,16.4357241 C40.9272918,16.8310287 41.0508244,17.2417749 41.0508244,17.6700215 C41.0508244,18.1826821 40.8850848,18.6582829 40.5536054,19.0968239 C40.222126,19.5343355 39.724907,19.8606677 39.0629777,20.074791 C38.9559161,20.0953798 38.8117946,20.1231746 38.6295839,20.1550872 C38.4484026,20.1869998 38.2445737,20.2086181 38.0211855,20.2189125 C37.7967678,20.2292068 37.5713206,20.2405307 37.3469029,20.2508251 C37.1224852,20.2611195 36.9248329,20.2672961 36.7539461,20.2672961 L34.990517,20.2672961 L34.990517,15.1684847 Z M30.7255513,2.53520931 L30.7255513,23.922834 L38.3567826,23.922834 C39.3831333,23.922834 40.3291877,23.7941541 41.1949459,23.5378238 C42.0607041,23.2814935 42.8029296,22.9016305 43.4236813,22.3992643 C44.0434036,21.896898 44.5303283,21.2874701 44.8823964,20.57201 C45.235494,19.8555205 45.411528,19.0484403 45.411528,18.1507695 C45.411528,17.1892735 45.1819631,16.3554279 44.7228334,15.6502622 C44.2626741,14.944067 43.6264808,14.345963 42.8142534,13.8538911 C43.969284,13.4482921 44.8926908,12.800775 45.5885916,11.914428 C46.2824334,11.0270516 46.6303838,9.91011031 46.6303838,8.56360409 C46.6303838,7.43019176 46.3091989,6.35133968 45.6678584,5.324989 C45.0265179,4.29863832 44.053698,3.53994177 42.7504282,3.04889937 C42.2583564,2.87698306 41.7292247,2.74830318 41.1630333,2.66388919 C40.5968418,2.57741631 40.046092,2.53520931 39.5118131,2.53520931 L30.7255513,2.53520931 Z" id="path214" fill="#FFFFFF" transform="translate(38.677968, 13.229022) scale(-1, 1) rotate(-180.000000) translate(-38.677968, -13.229022) "></path>
                <path d="M27.3134021,13.6359033 C27.3134021,6.32997468 21.3900101,0.406582679 14.0840815,0.406582679 C6.77815294,0.406582679 0.854760934,6.32997468 0.854760934,13.6359033 C0.854760934,20.9428613 6.77815294,26.8652239 14.0840815,26.8652239 C21.3900101,26.8652239 27.3134021,20.9428613 27.3134021,13.6359033" id="path218" fill="#FFFFFF" transform="translate(14.084082, 13.635903) scale(-1, 1) rotate(-180.000000) translate(-14.084082, -13.635903) "></path>
                <path d="M18.4939923,20.244181 L9.6747884,20.244181 C9.33301465,20.244181 9.04580117,20.4788931 8.96344605,20.7949309 C8.84506056,20.7300762 8.73388115,20.6477211 8.63505501,20.548895 C8.35813592,20.2709465 8.20474951,19.9024073 8.20474951,19.5091616 C8.20474951,18.6989931 8.86461991,18.0391227 9.6747884,18.0391227 L18.4939923,18.0391227 L18.4950218,18.0391227 C19.2794543,18.0391227 20.017562,17.7333793 20.5734591,17.1785117 C21.1283267,16.6226146 21.4340701,15.8845069 21.4340701,15.1000744 C21.4340701,14.7809483 21.3825981,14.4741754 21.2889192,14.186962 C21.8365807,14.8293319 22.1690895,15.6611186 22.1690895,16.5690838 C22.1690895,18.5960492 20.5209577,20.244181 18.4939923,20.244181" id="path230" fill="#0C2967" transform="translate(15.186920, 17.490946) scale(-1, 1) rotate(-180.000000) translate(-15.186920, -17.490946) "></path>
                <path d="M12.9820671,22.455519 L12.9820671,19.1489609 C12.9820671,18.539533 13.4761978,18.0454023 14.0845962,18.0454023 C14.6929947,18.0454023 15.1871254,18.539533 15.1871254,19.1479314 L15.1871254,22.455519 L12.9820671,22.455519 Z" id="path234" fill="#0C2967" transform="translate(14.084596, 20.250461) scale(-1, 1) rotate(-180.000000) translate(-14.084596, -20.250461) "></path>
                <path d="M7.47415665,20.435142 C7.47415665,20.0429257 7.62651362,19.6743866 7.90446215,19.3974675 C8.00328829,19.2986413 8.11343827,19.2162862 8.23285319,19.1504021 C8.31417887,19.4664399 8.59830404,19.6949753 8.93904834,19.6949753 L11.5116164,19.6949753 L11.5116164,21.8969454 L8.94213666,21.8969454 C8.13299761,21.8969454 7.47415665,21.244281 7.47415665,20.435142" id="path238" fill="#0C2967" transform="translate(9.492887, 20.523674) scale(-1, 1) rotate(-180.000000) translate(-9.492887, -20.523674) "></path>
                <path d="M19.2051288,21.3527839 C19.1227737,21.0357167 18.8355602,20.7979163 18.4937864,20.7979163 L16.6562378,20.7979163 L16.6562378,18.5959463 L18.4948159,18.5959463 C19.3049844,18.5959463 19.9638253,19.2558167 19.9638253,20.0659851 C19.9638253,20.4592308 19.8114683,20.82777 19.5335198,21.1057185 C19.4346937,21.2045447 19.3245437,21.2868998 19.2051288,21.3527839" id="path242" fill="#0C2967" transform="translate(18.310032, 19.974365) scale(-1, 1) rotate(-180.000000) translate(-18.310032, -19.974365) "></path>
                <path d="M9.67509723,14.1819177 L11.5116164,14.1819177 L11.5116164,16.3869761 L9.67406779,16.3869761 C7.64813184,16.3869761 6,14.7378148 6,12.7118788 C6,11.8028842 6.3325088,10.970068 6.88119978,10.3276981 C6.7864914,10.615941 6.73501945,10.9227138 6.73501945,11.2418399 C6.73501945,12.8632064 8.0537308,14.1819177 9.67509723,14.1819177" id="path246" fill="#0C2967" transform="translate(8.755808, 13.357337) scale(-1, 1) rotate(-180.000000) translate(-8.755808, -13.357337) "></path>
                <path d="M18.4939923,11.9823154 L16.6564437,11.9823154 L16.6564437,9.77725706 L18.4939923,9.77725706 C19.3051902,9.77725706 19.9640312,10.4371275 19.9640312,11.247296 C19.9640312,11.8001047 19.6572584,12.2818822 19.2043052,12.5330653 C19.1229795,12.2170275 18.8357661,11.9823154 18.4939923,11.9823154" id="path250" fill="#0C2967" transform="translate(18.310237, 11.155161) scale(-1, 1) rotate(-180.000000) translate(-18.310237, -11.155161) "></path>
                <path d="M15.1869195,12.5332712 C15.1869195,13.142699 14.6938182,13.6358003 14.0843904,13.6358003 C13.4759919,13.6358003 12.9818612,13.142699 12.9818612,12.5332712 L12.9828906,9.22568365 L15.1869195,9.22568365 L15.1869195,12.5332712 Z" id="path254" fill="#0C2967" transform="translate(14.084390, 11.430742) scale(-1, 1) rotate(-180.000000) translate(-14.084390, -11.430742) "></path>
                <path d="M10.9606607,11.0582485 C11.2653746,11.0582485 11.5114105,10.8111832 11.5114105,10.5074986 C11.5114105,10.2027847 11.2653746,9.95571935 10.9606607,9.95571935 C10.6559467,9.95571935 10.4099108,10.2027847 10.4099108,10.5074986 C10.4099108,10.8111832 10.6559467,11.0582485 10.9606607,11.0582485 M9.30738162,8.85319018 L18.4940953,8.85319018 C20.1154617,8.85319018 21.434173,7.53447882 21.434173,5.91311239 C21.434173,5.59501574 21.3827011,5.28824292 21.2890221,5 C21.8366837,5.64236994 22.1691925,6.47415665 22.1691925,7.38315128 C22.1691925,9.41011668 20.5210606,11.0582485 18.861605,11.0582485 L13.3489591,11.0582485 C12.5655561,11.6851769 12.0364244,11.9806259 11.5114105,11.9765081 C10.8052154,11.9713609 10.5931509,11.793268 9.49062176,11.2414887 C8.38809259,10.6907388 7.469833,10.3407295 7.469833,9.95571935 C7.469833,9.4214405 7.85381375,8.85319018 9.30738162,8.85319018" id="path258" fill="#0C2967" transform="translate(14.819513, 8.488275) scale(-1, 1) rotate(-180.000000) translate(-14.819513, -8.488275) "></path>
            </g>
        </g>
    </g>
</svg>