<?xml version="1.0" encoding="UTF-8"?>
<svg width="365px" height="136px" viewBox="0 0 365 136" version="1.1" xmlns="http://www.w3.org/2000/svg" xmlns:xlink="http://www.w3.org/1999/xlink">
    <title>DENPLAN LOGO 2020-RGB</title>
    <g id="Page-1" stroke="none" stroke-width="1" fill="none" fill-rule="evenodd">
        <g id="DENPLAN-LOGO-2020-RGB" fill-rule="nonzero">
            <path d="M80.03,44.36 C77.45,36.15 70.69,29.59 61.58,29.88 C53.88,30.12 46.99,35.22 39.3,35.6 C36.68,35.73 33.84,35.16 31.88,33.53 C31.57,33.27 31.85,32.76 32.23,32.91 C35.63,34.23 39.63,33.76 43.16,32.6 C47.27,31.25 51.09,29.06 55.26,27.9 C58.84,26.91 62.63,26.69 66.3,27.27 C66.7,27.34 66.89,26.8 66.54,26.6 C61.91,24.03 56.57,24.11 51.47,24.72 C46.88,25.27 42.9,26.64 38.26,26.28 C33.76,25.93 28.85,23.95 24.32,23.81 C20.53,23.69 16.78,24.93 13.62,26.99 C10.48,29.05 8.01,31.91 6.18,35.01 C4.36,38.12 3.11,41.48 2.29,44.88 C1.48,48.29 1.03,51.76 0.99,55.25 C0.89,62.7 2.2,70.44 4.45,77.53 C7.1,85.91 11.5,94.07 18.62,99.21 C23.94,103.05 30.48,104.97 37.02,105.53 C44.42,106.18 52.06,105.13 58.72,101.83 C67.89,97.28 74.66,88.66 78.24,79.06 C82.19,68.43 83.45,55.25 80.03,44.36" id="Path" fill="#99CC33"></path>
            <path d="M38.32,16.8 C38.86,11.21 40.69,6.31 44.44,2.43 C45.22,1.62 46.08,1 47.17,0.91 C48.53,0.8 49.23,1.87 48.71,3.29 C48.4,4.13 47.89,4.81 47.27,5.37 C43.91,8.46 42.15,12.56 41.35,17.26 C40.76,20.75 40.92,24.22 41.47,27.68 C41.54,28.13 41.63,28.59 41.6,29.05 C41.59,29.21 41.62,29.41 41.44,29.48 C41.28,29.55 41.17,29.42 41.06,29.31 C40.52,28.76 40.17,28.05 39.86,27.32 C38.74,24.72 38.31,21.94 38.27,19.07 C38.24,18.32 38.23,17.56 38.32,16.8" id="Path" fill="#006633"></path>
            <path d="M88.78,21.64 C87.51,17.73 85.58,15.35 83.24,12.73 C80.04,9.15 75.89,7.34 71.48,6.09 C65.09,4.28 57.77,5.04 51.61,7.62 C49.48,8.52 47.35,9.73 45.72,11.54 C45.13,12.19 44.41,13.4 44.3,13.56 C43.82,14.44 43.41,15.42 43.43,16.45 C43.45,17.81 44.25,18.75 45.43,19.25 C46.16,19.56 46.95,19.67 47.73,19.73 C51.31,19.99 54.9,19.12 58.44,18.71 C62.07,18.29 65.71,17.99 69.36,17.99 C71.54,17.99 73.73,18.1 75.9,18.35 C76.94,18.47 77.98,18.62 79.01,18.82 C78.87,18.79 85.22,20.43 88.22,22.22 C88.55,22.42 88.91,22.04 88.78,21.64" id="Path" fill="#006633"></path>
            <path d="M137.67,55.82 C137.67,71.04 128.56,78.75 110.59,78.75 L100.81,78.75 C100.56,78.75 100.35,78.55 100.35,78.29 L100.35,34.19 C100.35,33.94 100.55,33.73 100.81,33.73 L110.59,33.73 C128.81,33.73 137.67,40.96 137.67,55.82 M110.59,26.89 L94.49,26.89 C93.57,26.89 92.83,27.64 92.83,28.56 L92.83,84.1 C92.83,85.02 93.58,85.76 94.49,85.76 L110.59,85.76 C133.33,85.76 145.36,75.35 145.36,55.65 C145.36,36.57 133.66,26.89 110.59,26.89" id="Shape" fill="#0D2835"></path>
            <path d="M156.3,60.4 C157.08,53.72 161.33,49.73 167.65,49.73 C173.97,49.73 177.32,53.33 177.62,60.43 C177.62,60.55 177.58,60.67 177.49,60.77 C177.4,60.86 177.28,60.91 177.15,60.91 L156.75,60.91 C156.62,60.91 156.49,60.85 156.4,60.75 C156.33,60.65 156.29,60.52 156.3,60.4 M167.82,43.05 C156.16,43.05 148.62,51.58 148.62,64.79 C148.62,78.97 155.62,86.78 168.33,86.78 C176.34,86.78 181.21,84.13 183.89,81.9 C184.49,81.4 184.66,80.56 184.29,79.86 L182.89,77.14 C182.67,76.71 182.26,76.39 181.79,76.28 C181.33,76.17 180.84,76.26 180.45,76.54 C178.73,77.78 175.01,79.86 169.52,79.86 C161.7,79.86 157.26,75.82 156.31,67.84 C156.29,67.71 156.33,67.59 156.42,67.49 C156.51,67.39 156.63,67.33 156.77,67.33 L183.24,67.33 C184.16,67.33 184.91,66.58 184.91,65.66 L184.91,63.1 C184.91,49.98 179,43.05 167.82,43.05" id="Shape" fill="#0D2835"></path>
            <path d="M210.97,43.05 C203.9,43.05 199.69,45.94 197.35,48.5 L197.35,45.73 C197.35,44.81 196.6,44.06 195.68,44.06 L191.74,44.06 C190.82,44.06 190.08,44.81 190.08,45.73 L190.08,84.1 C190.08,85.02 190.83,85.77 191.74,85.77 L195.93,85.77 C196.85,85.77 197.6,85.02 197.6,84.1 L197.6,54.9 C199.4,52.96 203.19,49.81 208.69,49.81 C215.54,49.81 218.59,53.44 218.59,61.57 L218.59,84.09 C218.59,85.01 219.34,85.76 220.25,85.76 L224.44,85.76 C225.36,85.76 226.11,85.01 226.11,84.09 L226.11,60.21 C226.11,48.83 221.02,43.05 210.97,43.05" id="Path" fill="#0D2835"></path>
            <path d="M263,64.62 C263,74.59 258.81,79.85 250.9,79.85 C246.56,79.85 243.16,78.16 240.49,74.69 L240.49,54.98 C242.08,53.02 245.56,49.81 251.32,49.81 C258.85,49.81 263,55.07 263,64.62 M253.52,43.05 C247.85,43.05 243.38,44.88 240.24,48.49 L240.24,45.73 C240.24,44.81 239.49,44.06 238.57,44.06 L234.63,44.06 C233.71,44.06 232.97,44.81 232.97,45.73 L232.97,101.02 C232.97,101.94 233.71,102.69 234.63,102.69 L238.82,102.69 C239.74,102.69 240.49,101.94 240.49,101.02 L240.49,82.33 C242.04,83.94 245.13,86.78 252.25,86.78 C263.63,86.78 270.69,78.13 270.69,64.2 C270.69,51.15 264.11,43.05 253.52,43.05" id="Shape" fill="#0D2835"></path>
            <path d="M281.88,25.2 L277.69,25.2 C276.77,25.2 276.03,25.95 276.03,26.87 L276.03,84.1 C276.03,85.02 276.77,85.76 277.69,85.76 L281.88,85.76 C282.8,85.76 283.55,85.01 283.55,84.1 L283.55,26.87 C283.55,25.95 282.8,25.2 281.88,25.2" id="Path" fill="#0D2835"></path>
            <path d="M314.43,68.14 L314.43,75.44 C313.28,76.81 310.31,80.19 303.51,80.19 C298.87,80.19 296.32,77.97 296.32,73.93 C296.32,69.66 300.14,67.49 307.66,67.49 C310.37,67.49 312.44,67.56 314.01,67.68 C314.25,67.7 314.43,67.9 314.43,68.14 M305.8,43.05 C297.93,43.05 292.98,46.17 290.21,48.8 C289.63,49.35 289.54,50.24 289.99,50.92 L291.62,53.36 C291.89,53.76 292.32,54.03 292.8,54.09 C293.27,54.15 293.75,54 294.1,53.69 C297.05,51.07 300.73,49.73 305.04,49.73 C311.63,49.73 314.43,53.02 314.43,60.73 L314.43,61.72 C312.48,61.52 310.11,61.33 307.15,61.33 C295.31,61.33 288.8,65.95 288.8,74.35 C288.8,82.14 293.73,86.78 301.99,86.78 C307.69,86.78 311.98,84.99 314.77,81.47 L314.77,84.1 C314.77,85.02 315.52,85.77 316.43,85.77 L320.28,85.77 C321.2,85.77 321.950014,85.02 321.950014,84.1 L321.950014,60.81 C321.96,48.86 316.67,43.05 305.8,43.05" id="Shape" fill="#0D2835"></path>
            <path d="M349.62,43.05 C342.55,43.05 338.34,45.94 336,48.5 L336,45.73 C336,44.81 335.25,44.06 334.33,44.06 L330.4,44.06 C329.48,44.06 328.73,44.81 328.73,45.73 L328.73,84.1 C328.73,85.02 329.48,85.77 330.4,85.77 L334.59,85.77 C335.51,85.77 336.26,85.02 336.26,84.1 L336.26,54.9 C338.06,52.96 341.85,49.81 347.35,49.81 C354.2,49.81 357.25,53.44 357.25,61.57 L357.25,84.09 C357.25,85.01 358,85.76 358.91,85.76 L363.1,85.76 C364.02,85.76 364.77,85.01 364.77,84.09 L364.77,60.21 C364.76,48.83 359.67,43.05 349.62,43.05" id="Path" fill="#0D2835"></path>
            <path d="M351.44,128.58 L353.86,128.58 L353.86,120.17 C353.86,117.31 355.79,115.35 358.37,115.35 C360.68,115.35 362.3,116.94 362.3,119.22 L362.3,128.58 L364.75,128.58 L364.75,118.85 C364.75,115.56 362.39,113.29 359.07,113.29 C356.8,113.29 354.86,114.39 353.85,116.27 L353.85,106.97 L351.43,106.97 L351.43,128.58 L351.44,128.58 Z M343.67,109.24 L341.25,109.24 L341.25,113.66 L338.15,113.66 L338.15,115.59 L341.25,115.59 L341.25,124.59 C341.25,127.17 343.06,128.95 345.73,128.95 C346.68,128.95 347.67,128.83 348.71,128.55 L348.37,126.65 C347.61,126.83 346.9,126.96 346.25,126.96 C344.72,126.96 343.67,125.91 343.67,124.38 L343.67,115.6 L348.37,115.6 L348.37,113.67 L343.67,113.67 L343.67,109.24 L343.67,109.24 Z M334.71,106.97 L332.29,106.97 L332.29,125.36 C332.29,127.57 333.7,128.95 336,128.95 C336.67,128.95 337.48,128.86 338.3,128.68 L337.99,126.75 C337.47,126.87 336.95,126.97 336.52,126.97 C335.41,126.97 334.71,126.26 334.71,125.16 L334.71,106.97 L334.71,106.97 Z M317.58,124.31 C317.58,122.28 319.33,121.06 322.28,121.06 C323.29,121.06 324.31,121.18 325.35,121.43 L325.35,122.69 C325.35,125.33 323.54,127.17 320.96,127.17 C319.02,127.17 317.58,125.94 317.58,124.31 M315.18,124.47 C315.18,127.02 317.42,128.95 320.36,128.95 C322.42,128.95 324.35,128.03 325.55,126.47 C325.73,128 326.78,128.95 328.4,128.95 C328.95,128.95 329.5,128.89 330,128.8 L329.82,126.96 C329.63,126.99 329.26,127.05 329.02,127.05 C328.16,127.05 327.67,126.53 327.67,125.7 L327.67,118.48 C327.67,115.38 325.34,113.29 321.96,113.29 C320.06,113.29 318.15,113.69 316.07,114.49 L316.74,116.27 C318.46,115.53 320.09,115.17 321.69,115.17 C323.87,115.17 325.34,116.52 325.34,118.42 L325.34,119.96 C324.17,119.65 323.03,119.53 321.99,119.53 C317.76,119.52 315.18,121.33 315.18,124.47 M306.45,115.16 C308.97,115.16 310.75,117.22 310.84,120.17 L301.63,120.17 C301.88,117.16 303.78,115.16 306.45,115.16 M299.18,121.12 C299.18,125.73 302.4,128.95 306.95,128.95 C308.61,128.95 310.51,128.49 312.48,127.51 L311.71,125.82 C310.12,126.68 308.55,127.08 307.2,127.08 C304.06,127.08 301.85,124.9 301.64,121.73 L313.18,121.73 C313.21,121.42 313.21,121.15 313.21,120.84 C313.21,116.38 310.45,113.29 306.45,113.29 C302.19,113.29 299.18,116.51 299.18,121.12 M282.7,128.58 L285.12,128.58 L285.12,120.17 C285.12,117.31 287.06,115.35 289.64,115.35 C291.95,115.35 293.57,116.94 293.57,119.22 L293.57,128.58 L296.02,128.58 L296.02,118.85 C296.02,115.56 293.66,113.29 290.34,113.29 C288.07,113.29 286.13,114.39 285.12,116.27 L285.12,106.97 L282.7,106.97 L282.7,128.58 L282.7,128.58 Z M280.09,113.66 L277.51,113.66 L272.87,125.76 L268.08,113.66 L265.53,113.66 L271.7,128.46 L270.93,130.39 C270.13,132.48 269.24,133.34 267.74,133.34 C267.34,133.34 266.79,133.25 266.24,133.09 L265.9,135.05 C266.64,135.23 267.4,135.32 267.99,135.32 C270.39,135.32 271.92,133.91 273.15,130.81 L280.09,113.66 Z M262.15,106.97 L259.73,106.97 L259.73,125.36 C259.73,127.57 261.14,128.95 263.44,128.95 C264.11,128.95 264.91,128.86 265.74,128.68 L265.43,126.75 C264.91,126.87 264.38,126.97 263.95,126.97 C262.85,126.97 262.14,126.26 262.14,125.16 L262.14,106.97 L262.15,106.97 Z M253.89,121.12 C253.89,124.56 251.86,126.96 249.07,126.96 C246.46,126.96 244.65,125.06 244.65,122.32 L244.65,119.92 C244.65,117.22 246.46,115.28 249.07,115.28 C251.86,115.29 253.89,117.71 253.89,121.12 M242.25,134.96 L244.67,134.96 L244.67,126.25 C245.75,127.97 247.49,128.95 249.64,128.95 C253.54,128.95 256.36,125.7 256.36,121.12 C256.36,116.55 253.54,113.29 249.64,113.29 C247.4,113.29 245.56,114.3 244.51,116.14 L244.2,113.65 L242.24,113.65 L242.24,134.96 L242.25,134.96 Z M214.89,128.58 L217.31,128.58 L217.31,119.92 C217.31,117.25 219.09,115.35 221.58,115.35 C223.76,115.35 225.27,116.85 225.27,118.97 L225.27,128.58 L227.72,128.58 L227.72,119.92 C227.72,117.25 229.5,115.35 231.99,115.35 C234.14,115.35 235.64,116.85 235.64,118.97 L235.64,128.58 L238.09,128.58 L238.09,118.6 C238.09,115.5 235.85,113.29 232.66,113.29 C230.29,113.29 228.36,114.52 227.19,116.54 C226.49,114.55 224.61,113.29 222.28,113.29 C220.04,113.29 218.2,114.37 217.15,116.27 L216.84,113.66 L214.88,113.66 L214.88,128.58 L214.89,128.58 Z M207.75,109.11 C207.75,110.06 208.42,110.74 209.41,110.74 C210.36,110.74 211.03,110.07 211.03,109.11 C211.03,108.16 210.36,107.49 209.41,107.49 C208.42,107.49 207.75,108.17 207.75,109.11 M208.18,128.58 L210.6,128.58 L210.6,113.66 L208.18,113.66 L208.18,128.58 Z M190.26,113.1 C190.26,120.72 202.29,117.65 202.29,123.3 C202.29,125.45 200.32,126.89 197.28,126.89 C195.41,126.89 193.07,126.28 190.74,125.35 L190.13,127.32 C192.77,128.39 195.28,128.94 197.46,128.94 C201.82,128.94 204.8,126.64 204.8,123.3 C204.8,115.5 192.73,118.63 192.73,113.1 C192.73,111.02 194.7,109.63 197.64,109.63 C199.39,109.63 201.36,110.06 203.44,110.92 L204.05,108.96 C201.72,108.04 199.51,107.58 197.45,107.58 C193.21,107.58 190.26,109.85 190.26,113.1 M175.62,128.58 L178.04,128.58 L178.04,115.59 L182.25,115.59 L182.25,113.66 L178.04,113.66 L178.04,111.17 C178.04,109.63 179.09,108.59 180.62,108.59 C181.27,108.59 181.97,108.71 182.74,108.9 L183.08,107 C182.04,106.73 181.06,106.6 180.1,106.6 C177.43,106.6 175.62,108.38 175.62,110.96 L175.62,113.66 L172.52,113.66 L172.52,115.59 L175.62,115.59 L175.62,128.58 L175.62,128.58 Z M158.49,121.12 C158.49,117.68 160.58,115.25 163.59,115.25 C166.57,115.25 168.69,117.68 168.69,121.12 C168.69,124.59 166.57,126.99 163.59,126.99 C160.58,126.98 158.49,124.59 158.49,121.12 M155.98,121.12 C155.98,125.73 159.14,128.95 163.59,128.95 C168.01,128.95 171.17,125.73 171.17,121.12 C171.17,116.51 168.01,113.29 163.59,113.29 C159.14,113.29 155.98,116.51 155.98,121.12 M143.11,109.24 L140.69,109.24 L140.69,113.66 L137.59,113.66 L137.59,115.59 L140.69,115.59 L140.69,124.59 C140.69,127.17 142.5,128.95 145.17,128.95 C146.12,128.95 147.1,128.83 148.15,128.55 L147.81,126.65 C147.04,126.83 146.33,126.96 145.69,126.96 C144.15,126.96 143.11,125.91 143.11,124.38 L143.11,115.6 L147.81,115.6 L147.81,113.67 L143.11,113.67 L143.11,109.24 L143.11,109.24 Z M127.16,128.58 L129.58,128.58 L129.58,120.51 C129.58,117.5 131.33,115.44 133.88,115.44 C134.46,115.44 135.08,115.53 135.66,115.66 L135.93,113.67 C135.28,113.52 134.61,113.42 134.06,113.42 C131.91,113.42 130.16,114.58 129.42,116.49 L129.11,113.67 L127.15,113.67 L127.15,128.58 L127.16,128.58 Z M112.32,124.31 C112.32,122.28 114.07,121.06 117.02,121.06 C118.03,121.06 119.05,121.18 120.09,121.43 L120.09,122.69 C120.09,125.33 118.28,127.17 115.7,127.17 C113.76,127.17 112.32,125.94 112.32,124.31 M109.93,124.47 C109.93,127.02 112.17,128.95 115.12,128.95 C117.18,128.95 119.11,128.03 120.31,126.47 C120.49,128 121.54,128.95 123.16,128.95 C123.72,128.95 124.27,128.89 124.76,128.8 L124.58,126.96 C124.4,126.99 124.03,127.05 123.78,127.05 C122.92,127.05 122.43,126.53 122.43,125.7 L122.43,118.48 C122.43,115.38 120.1,113.29 116.72,113.29 C114.82,113.29 112.91,113.69 110.83,114.49 L111.5,116.27 C113.22,115.53 114.85,115.17 116.45,115.17 C118.63,115.17 120.1,116.52 120.1,118.42 L120.1,119.96 C118.94,119.65 117.79,119.53 116.75,119.53 C112.5,119.52 109.93,121.33 109.93,124.47 M95.68,109.94 L100.63,109.94 C103.43,109.94 105.42,111.81 105.42,114.42 C105.42,117.03 103.43,118.87 100.63,118.87 L95.68,118.87 L95.68,109.94 Z M93.22,128.58 L95.67,128.58 L95.67,120.87 L100.98,120.87 C105,120.87 107.88,118.2 107.88,114.42 C107.88,110.61 105,107.94 100.98,107.94 L93.21,107.94 L93.21,128.58 L93.22,128.58 Z" id="Shape" fill="#0D2835"></path>
        </g>
    </g>
</svg>